<?xml version="1.0" standalone="no"?>
<svg xmlns="http://www.w3.org/2000/svg" viewBox="0 0 186.553 36" width="186.553" height="36"><g fill="#fea701" color="#fea701" transform="translate(0 4.000145831814253) scale(0.2916637)"><svg width="96.001" height="96.0" x="0.0" y="0.0" viewBox="0 0 96.001 96"><g><path d="M47.331,4.829H26.415v21.586h15.031C45.184,20.087,47.331,12.709,47.331,4.829z"></path><path d="M69.586,4.829H48.669l0,0c0,4.68,0.758,9.182,2.154,13.392c0.147,0.442,0.302,0.883,0.463,1.319   c0.081,0.219,0.163,0.437,0.248,0.653c0.168,0.433,0.342,0.861,0.524,1.288c0.727,1.705,1.562,3.352,2.497,4.934h15.031V4.829z"></path><path d="M4.829,26.415v20.916c7.88,0,15.259-2.146,21.586-5.885V26.415H4.829z"></path><path d="M54.555,26.415H48h-6.555c-3.658,6.191-8.84,11.374-15.031,15.031V48v6.557c6.19,3.657,11.373,8.839,15.03,15.029H48h6.556   c3.657-6.19,8.839-11.372,15.03-15.029V48v-6.554C63.395,37.789,58.212,32.606,54.555,26.415z M48,58.792   c-5.961,0-10.793-4.832-10.793-10.793c0-5.96,4.832-10.792,10.793-10.792S58.793,42.04,58.793,48   C58.793,53.96,53.961,58.792,48,58.792z"></path><path d="M69.586,41.446c6.327,3.738,13.705,5.885,21.586,5.885V26.415H69.586V41.446z"></path><path d="M4.829,48.671v20.914h21.586V54.556C20.087,50.819,12.709,48.671,4.829,48.671z"></path><path d="M91.172,69.585V48.671c-7.881,0-15.259,2.147-21.586,5.885v15.029H91.172z"></path><path d="M26.415,91.171h20.917c-0.001-7.88-2.149-15.259-5.887-21.586h-15.03V91.171z"></path><path d="M48.669,91.171h20.917V69.585h-15.03C50.817,75.913,48.67,83.292,48.669,91.171z"></path></g></svg></g><path fill="#fe4e01" fill-rule="nonzero" d="M12.80 0.07L12.80 0.07Q13.62 0.07 14.14 0.53Q14.67 0.98 14.60 2.18L14.60 2.18Q14.58 2.58 14.41 3.67Q14.25 4.76 14.02 6.23Q13.78 7.71 13.49 9.41Q13.20 11.11 12.94 12.73L12.94 12.73L13.43 12.73Q13.66 12.73 13.95 12.70Q14.23 12.68 14.53 12.63L14.53 12.63Q14.41 12.91 14.27 13.16Q14.13 13.41 13.99 13.59L13.99 13.59Q13.83 13.80 13.66 13.97L13.66 13.97Q13.45 14.23 13.17 14.43Q12.89 14.63 12.63 14.74L12.63 14.74Q12.47 15.89 12.36 16.79Q12.26 17.70 12.23 18.28L12.23 18.28Q12.19 19.17 12.28 19.95L12.28 19.95Q12.35 20.63 12.56 21.33Q12.77 22.03 13.24 22.45L13.24 22.45L10.52 23.34Q10.24 22.95 10.11 22.28Q9.98 21.61 9.94 20.95L9.94 20.95Q9.87 20.18 9.91 19.36L9.91 19.36Q9.96 18.54 10.17 17.21Q10.38 15.89 10.64 14.32L10.64 14.32Q10.17 14.18 9.62 14.09Q9.07 13.99 8.39 13.99L8.39 13.99Q7.78 13.99 7.11 14.04Q6.45 14.09 5.79 14.16L5.79 14.16Q5.51 15.19 5.23 16.34L5.23 16.34Q4.92 17.58 4.68 18.46Q4.43 19.34 4.21 19.92Q3.98 20.51 3.76 20.86Q3.54 21.21 3.28 21.38L3.28 21.38Q3 21.52 2.58 21.63L2.58 21.63Q2.18 21.75 1.57 21.87Q0.96 21.98 0 22.05L0 22.05Q0.35 21.63 0.61 21.28Q0.87 20.93 1.13 20.41Q1.38 19.90 1.70 19.09Q2.02 18.28 2.51 16.97L2.51 16.97Q2.72 16.43 2.94 15.79Q3.16 15.14 3.42 14.46L3.42 14.46Q2.58 14.58 1.99 14.67Q1.41 14.77 1.29 14.81L1.29 14.81Q1.10 14.84 0.98 14.81L0.98 14.81Q0.68 14.77 0.66 14.51L0.66 14.51Q0.68 14.18 0.88 14.06Q1.08 13.95 1.48 13.78L1.48 13.78Q1.66 13.69 2.33 13.44Q3 13.20 3.96 12.91L3.96 12.91Q4.31 11.93 4.65 10.96Q4.99 9.98 5.32 9.09Q5.65 8.20 5.95 7.42Q6.26 6.63 6.52 6.07L6.52 6.07Q6.91 5.20 7.54 4.16Q8.16 3.12 8.96 2.20Q9.77 1.29 10.75 0.68Q11.72 0.07 12.80 0.07ZM12.54 4.95L12.54 4.95Q12.80 3.89 12.89 3.21Q12.98 2.53 12.96 2.14Q12.94 1.76 12.81 1.61Q12.68 1.45 12.49 1.45L12.49 1.45Q12.19 1.45 11.74 1.69Q11.30 1.92 10.80 2.36Q10.31 2.79 9.83 3.43Q9.35 4.08 8.98 4.90L8.98 4.90Q8.44 6.12 7.76 7.89Q7.08 9.66 6.28 12.40L6.28 12.40Q6.75 12.33 7.21 12.28Q7.66 12.23 8.11 12.23L8.11 12.23Q8.91 12.23 9.63 12.29Q10.36 12.35 10.97 12.42L10.97 12.42Q11.18 11.30 11.40 10.21Q11.63 9.12 11.84 8.13Q12.05 7.15 12.22 6.33Q12.40 5.51 12.54 4.95ZM22.88 18.30L22.88 18.30Q22.34 18.30 21.95 18.11Q21.56 17.91 21.33 17.58Q21.09 17.25 21.02 16.82Q20.95 16.38 21.07 15.89L21.07 15.89Q21.14 15.56 21.30 15.01Q21.47 14.46 21.64 13.82Q21.82 13.17 21.97 12.53Q22.13 11.88 22.17 11.36Q22.22 10.83 22.13 10.49Q22.03 10.15 21.73 10.15L21.73 10.15Q21.35 10.15 20.95 10.39Q20.55 10.64 20.14 11.06Q19.73 11.48 19.32 12.04Q18.91 12.59 18.52 13.17L18.52 13.17Q18.30 13.97 18.16 14.57Q18.02 15.16 17.92 15.64Q17.81 16.13 17.72 16.49Q17.63 16.85 17.55 17.18L17.55 17.18Q17.48 17.41 17.13 17.64Q16.78 17.86 16.38 18Q15.98 18.14 15.69 18.14Q15.40 18.14 15.45 17.93L15.45 17.93Q15.47 17.79 15.60 17.30Q15.73 16.80 15.90 16.14Q16.08 15.47 16.27 14.72Q16.45 13.97 16.62 13.29L16.62 13.29Q16.73 12.75 16.88 12.09L16.88 12.09Q16.99 11.53 17.17 10.78Q17.34 10.03 17.58 9.14L17.58 9.14Q17.74 9 17.92 8.92Q18.09 8.84 18.28 8.79L18.28 8.79Q18.47 8.72 18.68 8.70L18.68 8.70Q18.87 8.70 19.05 8.72L19.05 8.72Q19.22 8.74 19.39 8.80Q19.57 8.86 19.71 8.98L19.71 8.98Q19.64 9.14 19.55 9.43Q19.45 9.73 19.36 10.05L19.36 10.05Q19.27 10.43 19.13 10.83L19.13 10.83Q19.43 10.41 19.82 9.97Q20.20 9.54 20.66 9.19Q21.12 8.84 21.63 8.61Q22.15 8.39 22.69 8.39L22.69 8.39Q23.13 8.39 23.48 8.65Q23.84 8.91 24.04 9.36Q24.23 9.82 24.27 10.45Q24.30 11.09 24.09 11.84L24.09 11.84L23.84 12.87Q23.72 13.36 23.54 14.03Q23.37 14.70 23.11 15.49L23.11 15.49Q22.97 16.01 23.00 16.38Q23.04 16.76 23.46 16.76L23.46 16.76Q23.88 16.76 24.53 16.24Q25.17 15.73 25.83 15Q26.48 14.27 27.07 13.51Q27.66 12.75 27.96 12.28L27.96 12.28Q28.17 11.98 28.36 11.88Q28.55 11.79 28.65 11.86Q28.76 11.93 28.76 12.18Q28.76 12.42 28.57 12.80L28.57 12.80Q28.41 13.13 28.07 13.66Q27.73 14.20 27.26 14.81Q26.79 15.42 26.25 16.04Q25.71 16.66 25.13 17.17Q24.54 17.67 23.96 17.99Q23.39 18.30 22.88 18.30ZM34.45 13.24L34.45 13.24Q34.34 13.97 34.23 14.63Q34.13 15.28 34.10 15.68L34.10 15.68Q34.08 16.27 34.31 16.52Q34.55 16.78 34.83 16.78L34.83 16.78Q35.16 16.78 35.64 16.45Q36.12 16.13 36.66 15.63Q37.20 15.14 37.73 14.55Q38.27 13.97 38.73 13.44Q39.19 12.91 39.50 12.52Q39.82 12.12 39.94 12L39.94 12Q40.08 11.86 40.23 11.84Q40.38 11.81 40.48 11.88Q40.57 11.95 40.57 12.14Q40.57 12.33 40.38 12.61L40.38 12.61Q40.10 13.05 39.66 13.65Q39.21 14.25 38.67 14.88Q38.13 15.52 37.54 16.13Q36.94 16.73 36.34 17.20Q35.74 17.67 35.19 17.96Q34.64 18.26 34.20 18.26L34.20 18.26Q33.87 18.26 33.57 18.07Q33.28 17.88 33.05 17.58Q32.81 17.27 32.68 16.90Q32.55 16.52 32.58 16.15L32.58 16.15Q32.60 15.98 32.65 15.59L32.65 15.59Q31.66 16.69 30.67 17.33Q29.67 17.98 28.76 17.98L28.76 17.98Q28.43 17.98 28.05 17.81Q27.68 17.65 27.39 17.27Q27.09 16.90 26.91 16.29Q26.72 15.68 26.77 14.81L26.77 14.81Q26.84 13.45 27.30 12.23Q27.77 11.02 28.49 10.11Q29.20 9.21 30.11 8.68Q31.01 8.16 31.92 8.16L31.92 8.16Q32.32 8.16 32.65 8.36Q32.98 8.55 33.21 8.87Q33.45 9.19 33.60 9.56Q33.75 9.94 33.82 10.27L33.82 10.27Q33.98 9.59 34.13 8.93Q34.27 8.27 34.41 7.69L34.41 7.69Q34.64 6.82 34.90 5.81L34.90 5.81Q35.13 4.95 35.44 3.82Q35.74 2.70 36.12 1.45L36.12 1.45Q36.35 1.27 36.56 1.17Q36.77 1.08 36.96 1.03L36.96 1.03Q37.17 0.96 37.36 0.96L37.36 0.96Q37.59 0.96 37.78 1.02Q37.97 1.08 38.10 1.32Q38.23 1.57 38.27 2.06Q38.32 2.55 38.27 3.40L38.27 3.40Q38.23 4.43 37.91 5.65Q37.59 6.87 37.08 8.17Q36.56 9.47 35.89 10.77Q35.23 12.07 34.45 13.24ZM33.07 13.55L33.07 13.55Q33.16 13.10 33.25 12.66Q33.33 12.21 33.45 11.74L33.45 11.74Q33.40 11.77 33.36 11.79Q33.33 11.81 33.28 11.84L33.28 11.84Q33.02 11.95 32.93 11.82Q32.84 11.70 32.84 11.41L32.84 11.41Q32.84 11.27 32.81 10.91Q32.79 10.55 32.68 10.16Q32.58 9.77 32.37 9.48Q32.16 9.19 31.78 9.19L31.78 9.19Q31.24 9.19 30.68 9.74Q30.12 10.29 29.63 11.07Q29.13 11.86 28.80 12.75Q28.48 13.64 28.43 14.34L28.43 14.34Q28.38 15.47 28.71 15.96Q29.04 16.45 29.60 16.45L29.60 16.45Q30.02 16.45 30.53 16.13Q31.03 15.80 31.51 15.33Q31.99 14.86 32.40 14.37Q32.81 13.88 33.07 13.55ZM49.22 12.84L49.22 12.84Q48.52 13.88 47.63 14.85Q46.73 15.82 45.74 16.58Q44.74 17.34 43.70 17.81Q42.66 18.28 41.67 18.28L41.67 18.28Q41.16 18.28 40.56 18.04Q39.96 17.79 39.47 17.27Q38.98 16.76 38.68 15.94Q38.39 15.12 38.51 13.95L38.51 13.95Q38.60 12.98 39.11 11.92Q39.61 10.85 40.35 9.96Q41.09 9.07 42.01 8.48Q42.94 7.90 43.88 7.90L43.88 7.90Q44.77 7.90 45.16 8.34Q45.56 8.79 45.52 9.45L45.52 9.45Q45.45 10.17 45.11 10.78Q44.77 11.39 44.30 11.88Q43.83 12.38 43.30 12.77Q42.77 13.17 42.30 13.50L42.30 13.50Q41.79 13.85 41.32 14.17Q40.85 14.48 40.50 14.74L40.50 14.74Q40.52 15.33 40.71 15.73Q40.90 16.13 41.18 16.37Q41.46 16.62 41.82 16.72Q42.19 16.83 42.56 16.83L42.56 16.83Q43.36 16.83 44.23 16.32Q45.09 15.82 45.93 15.11Q46.76 14.39 47.47 13.62Q48.19 12.84 48.66 12.28L48.66 12.28Q48.82 12.09 49.00 12.06Q49.17 12.02 49.28 12.11Q49.38 12.19 49.38 12.39Q49.38 12.59 49.22 12.84ZM43.22 9.23L43.22 9.23Q42.94 9.23 42.55 9.52Q42.16 9.80 41.79 10.32Q41.41 10.85 41.09 11.61Q40.76 12.38 40.59 13.36L40.59 13.36Q40.88 13.15 41.20 12.93Q41.53 12.70 41.86 12.45L41.86 12.45Q42.87 11.67 43.27 11.09Q43.66 10.50 43.71 10.08L43.71 10.08Q43.76 9.63 43.62 9.43Q43.48 9.23 43.22 9.23ZM59.55 13.05L59.55 13.05Q59.23 13.52 58.71 14.21Q58.20 14.91 57.64 15.60Q57.09 16.29 56.57 16.86Q56.04 17.44 55.69 17.67L55.69 17.67Q55.45 17.81 55.15 17.91Q54.84 18 54.53 18.02Q54.21 18.05 53.93 17.99Q53.65 17.93 53.44 17.79L53.44 17.79Q53.23 17.63 53.09 17.32L53.09 17.32Q52.97 17.06 52.86 16.64Q52.76 16.22 52.78 15.59L52.78 15.59Q52.22 16.52 51.54 17.03Q50.86 17.53 50.25 17.77L50.25 17.77Q49.55 18.02 48.84 18.07L48.84 18.07Q48.52 18.07 48.14 17.85Q47.77 17.63 47.51 17.14Q47.25 16.66 47.18 15.90Q47.11 15.14 47.37 14.09L47.37 14.09Q47.70 12.66 48.41 11.48Q49.13 10.31 49.97 9.48Q50.81 8.65 51.63 8.23Q52.45 7.80 52.99 7.85L52.99 7.85Q53.63 7.97 54.02 8.23L54.02 8.23Q54.35 8.46 54.46 8.92Q54.56 9.38 54.07 10.13L54.07 10.13Q54.40 10.05 54.62 10.03Q54.84 10.01 54.96 10.01L54.96 10.01Q55.10 10.01 55.15 10.03L55.15 10.03Q55.17 10.08 55.17 10.23Q55.17 10.38 55.10 10.78Q55.03 11.18 54.89 11.86Q54.75 12.54 54.52 13.62L54.52 13.62Q54.47 13.83 54.43 14.00Q54.40 14.18 54.36 14.36Q54.33 14.53 54.28 14.77Q54.23 15 54.16 15.35L54.16 15.35Q54.14 15.56 54.15 15.81Q54.16 16.05 54.23 16.27Q54.30 16.48 54.46 16.61Q54.61 16.73 54.89 16.73L54.89 16.73Q55.13 16.73 55.50 16.44Q55.88 16.15 56.30 15.69Q56.72 15.23 57.18 14.68Q57.63 14.13 58.03 13.62Q58.43 13.10 58.75 12.70Q59.06 12.30 59.20 12.12L59.20 12.12Q59.39 11.91 59.58 11.87Q59.77 11.84 59.86 11.98Q59.95 12.12 59.89 12.40Q59.84 12.68 59.55 13.05ZM52.69 14.09L52.69 14.09Q52.80 13.62 52.97 12.98Q53.13 12.35 53.25 11.77Q53.37 11.18 53.43 10.79Q53.48 10.41 53.39 10.43L53.39 10.43Q53.27 10.45 53.13 10.50L53.13 10.50Q53.02 10.55 52.83 10.57Q52.64 10.59 52.45 10.64L52.45 10.64Q52.64 10.27 52.68 10.02Q52.71 9.77 52.69 9.63L52.69 9.63Q52.66 9.47 52.59 9.38L52.59 9.38Q52.34 9.16 51.69 9.71Q51.05 10.27 50.20 11.74L50.20 11.74Q49.85 12.35 49.64 13.04Q49.43 13.73 49.35 14.34Q49.27 14.95 49.31 15.41Q49.36 15.87 49.50 16.01L49.50 16.01Q49.76 16.27 50.09 16.25Q50.41 16.24 50.75 16.07Q51.09 15.89 51.43 15.61Q51.77 15.33 52.04 15.02Q52.31 14.72 52.49 14.46Q52.66 14.20 52.69 14.09ZM64.95 18.30L64.95 18.30Q64.41 18.30 64.02 18.11Q63.63 17.91 63.40 17.58Q63.16 17.25 63.09 16.82Q63.02 16.38 63.14 15.89L63.14 15.89Q63.21 15.56 63.38 15.01Q63.54 14.46 63.71 13.82Q63.89 13.17 64.04 12.53Q64.20 11.88 64.24 11.36Q64.29 10.83 64.20 10.49Q64.10 10.15 63.80 10.15L63.80 10.15Q63.42 10.15 63.02 10.39Q62.63 10.64 62.21 11.06Q61.80 11.48 61.39 12.04Q60.98 12.59 60.59 13.17L60.59 13.17Q60.38 13.97 60.23 14.57Q60.09 15.16 59.99 15.64Q59.88 16.13 59.79 16.49Q59.70 16.85 59.63 17.18L59.63 17.18Q59.55 17.41 59.20 17.64Q58.85 17.86 58.45 18Q58.05 18.14 57.76 18.14Q57.47 18.14 57.52 17.93L57.52 17.93Q57.54 17.79 57.67 17.30Q57.80 16.80 57.97 16.14Q58.15 15.47 58.34 14.72Q58.52 13.97 58.69 13.29L58.69 13.29Q58.80 12.75 58.95 12.09L58.95 12.09Q59.06 11.53 59.24 10.78Q59.41 10.03 59.65 9.14L59.65 9.14Q59.81 9 59.99 8.92Q60.16 8.84 60.35 8.79L60.35 8.79Q60.54 8.72 60.75 8.70L60.75 8.70Q60.94 8.70 61.13 8.72L61.13 8.72Q61.29 8.74 61.46 8.80Q61.64 8.86 61.78 8.98L61.78 8.98Q61.71 9.14 61.62 9.43Q61.52 9.73 61.43 10.05L61.43 10.05Q61.34 10.43 61.20 10.83L61.20 10.83Q61.50 10.41 61.89 9.97Q62.27 9.54 62.73 9.19Q63.19 8.84 63.70 8.61Q64.22 8.39 64.76 8.39L64.76 8.39Q65.20 8.39 65.55 8.65Q65.91 8.91 66.11 9.36Q66.30 9.82 66.34 10.45Q66.38 11.09 66.16 11.84L66.16 11.84L65.91 12.87Q65.79 13.36 65.61 14.03Q65.44 14.70 65.18 15.49L65.18 15.49Q65.04 16.01 65.07 16.38Q65.11 16.76 65.53 16.76L65.53 16.76Q65.95 16.76 66.60 16.24Q67.24 15.73 67.90 15Q68.55 14.27 69.14 13.51Q69.73 12.75 70.03 12.28L70.03 12.28Q70.24 11.98 70.43 11.88Q70.62 11.79 70.72 11.86Q70.83 11.93 70.83 12.18Q70.83 12.42 70.64 12.80L70.64 12.80Q70.48 13.13 70.14 13.66Q69.80 14.20 69.33 14.81Q68.86 15.42 68.32 16.04Q67.78 16.66 67.20 17.17Q66.61 17.67 66.04 17.99Q65.46 18.30 64.95 18.30ZM74.11 22.08L74.11 22.08Q72.94 22.08 71.99 21.52Q71.04 20.95 70.37 19.97Q69.70 18.98 69.36 17.66Q69.02 16.34 69.07 14.84L69.07 14.84Q69.12 13.43 69.43 11.79Q69.75 10.15 70.34 8.50Q70.92 6.84 71.75 5.31Q72.59 3.77 73.66 2.60Q74.74 1.43 76.05 0.71Q77.37 0 78.94 0L78.94 0Q79.90 0 80.57 0.39Q81.23 0.77 81.64 1.41Q82.05 2.04 82.22 2.84Q82.38 3.63 82.36 4.45L82.36 4.45Q82.31 5.23 82.14 5.95Q81.96 6.68 81.64 7.25Q81.33 7.83 80.87 8.17Q80.41 8.51 79.83 8.51L79.83 8.51Q79.55 8.48 79.29 8.32L79.29 8.32Q79.05 8.18 78.81 7.90Q78.56 7.62 78.35 7.08L78.35 7.08Q78.98 6.82 79.35 6.18Q79.71 5.53 79.90 4.83L79.90 4.83Q80.11 4.03 80.18 3.05L80.18 3.05Q80.23 2.09 79.78 1.64Q79.34 1.20 78.77 1.20L78.77 1.20Q77.67 1.20 76.45 2.34Q75.23 3.49 74.19 5.45Q73.15 7.41 72.43 10.01Q71.72 12.61 71.60 15.52L71.60 15.52Q71.55 16.83 71.78 17.74Q72 18.66 72.41 19.24Q72.82 19.83 73.34 20.09Q73.85 20.34 74.37 20.34L74.37 20.34Q75.19 20.34 75.91 19.99Q76.64 19.64 77.24 19.13Q77.84 18.61 78.27 18.06Q78.70 17.51 78.94 17.09L78.94 17.09Q79.10 16.78 79.29 16.71Q79.48 16.64 79.62 16.75Q79.76 16.85 79.80 17.07Q79.85 17.30 79.71 17.60L79.71 17.60Q79.31 18.40 78.74 19.20Q78.16 19.99 77.45 20.64Q76.73 21.28 75.89 21.68Q75.05 22.08 74.11 22.08ZM92.86 12.84L92.86 12.84Q92.16 13.88 91.27 14.85Q90.38 15.82 89.38 16.58Q88.38 17.34 87.34 17.81Q86.30 18.28 85.31 18.28L85.31 18.28Q84.80 18.28 84.20 18.04Q83.60 17.79 83.11 17.27Q82.62 16.76 82.32 15.94Q82.03 15.12 82.15 13.95L82.15 13.95Q82.24 12.98 82.75 11.92Q83.25 10.85 83.99 9.96Q84.73 9.07 85.65 8.48Q86.58 7.90 87.52 7.90L87.52 7.90Q88.41 7.90 88.80 8.34Q89.20 8.79 89.16 9.45L89.16 9.45Q89.09 10.17 88.75 10.78Q88.41 11.39 87.94 11.88Q87.47 12.38 86.94 12.77Q86.41 13.17 85.95 13.50L85.95 13.50Q85.43 13.85 84.96 14.17Q84.49 14.48 84.14 14.74L84.14 14.74Q84.16 15.33 84.35 15.73Q84.54 16.13 84.82 16.37Q85.10 16.62 85.46 16.72Q85.83 16.83 86.20 16.83L86.20 16.83Q87 16.83 87.87 16.32Q88.73 15.82 89.57 15.11Q90.40 14.39 91.11 13.62Q91.83 12.84 92.30 12.28L92.30 12.28Q92.46 12.09 92.64 12.06Q92.81 12.02 92.92 12.11Q93.02 12.19 93.02 12.39Q93.02 12.59 92.86 12.84ZM86.86 9.23L86.86 9.23Q86.58 9.23 86.19 9.52Q85.80 9.80 85.43 10.32Q85.05 10.85 84.73 11.61Q84.40 12.38 84.23 13.36L84.23 13.36Q84.52 13.15 84.84 12.93Q85.17 12.70 85.50 12.45L85.50 12.45Q86.51 11.67 86.91 11.09Q87.30 10.50 87.35 10.08L87.35 10.08Q87.40 9.63 87.26 9.43Q87.12 9.23 86.86 9.23ZM90.28 17.60L90.28 17.60Q90.12 17.86 89.92 17.94Q89.72 18.02 89.57 17.96Q89.41 17.91 89.37 17.72Q89.32 17.53 89.46 17.25L89.46 17.25Q89.53 17.11 89.78 16.62Q90.02 16.13 90.36 15.43Q90.70 14.74 91.10 13.93Q91.50 13.13 91.86 12.40Q92.23 11.67 92.53 11.10Q92.84 10.52 92.98 10.27L92.98 10.27Q92.72 10.03 92.63 9.93Q92.53 9.82 92.48 9.47L92.48 9.47Q92.44 9.16 92.63 8.67Q92.81 8.18 93.12 7.72Q93.42 7.27 93.80 6.94Q94.17 6.61 94.52 6.61L94.52 6.61Q95.18 6.61 95.45 7.03Q95.72 7.45 95.77 7.90L95.77 7.90Q95.81 8.20 95.72 8.67Q95.63 9.14 95.37 9.52L95.37 9.52Q95.44 9.56 95.55 9.62Q95.67 9.68 95.93 9.68L95.93 9.68Q96.30 9.68 96.46 9.63Q96.61 9.59 96.94 9.59L96.94 9.59Q97.34 9.59 97.59 9.79Q97.85 9.98 98.02 10.28Q98.18 10.57 98.26 10.91Q98.34 11.25 98.37 11.53L98.37 11.53Q98.44 12.12 98.06 12.75Q97.69 13.38 97.15 14.13L97.15 14.13Q96.82 14.60 96.49 15.19Q96.16 15.77 96.21 16.24L96.21 16.24Q96.26 16.55 96.38 16.73Q96.49 16.92 97.03 16.92L97.03 16.92Q97.43 16.92 97.91 16.63Q98.39 16.34 98.89 15.88Q99.40 15.42 99.89 14.87Q100.38 14.32 100.80 13.79Q101.23 13.27 101.52 12.84Q101.81 12.42 101.95 12.23L101.95 12.23Q102.07 12.05 102.26 11.98Q102.45 11.91 102.59 11.98Q102.73 12.05 102.76 12.26Q102.80 12.47 102.59 12.82L102.59 12.82Q102.45 13.05 102.11 13.57Q101.77 14.09 101.29 14.72Q100.80 15.35 100.22 16.02Q99.63 16.69 98.99 17.24Q98.34 17.79 97.70 18.14Q97.05 18.49 96.47 18.49L96.47 18.49Q95.86 18.49 95.46 18.26Q95.06 18.02 94.82 17.68Q94.57 17.34 94.46 16.93Q94.36 16.52 94.38 16.17L94.38 16.17Q94.41 15.89 94.54 15.57Q94.66 15.26 94.84 14.92Q95.02 14.58 95.21 14.24Q95.41 13.90 95.58 13.57L95.58 13.57Q95.98 12.89 96.22 12.41Q96.47 11.93 96.47 11.60L96.47 11.60Q96.47 11.39 96.38 11.23Q96.28 11.06 96.07 11.06L96.07 11.06Q95.93 11.06 95.87 11.07Q95.81 11.09 95.75 11.09Q95.70 11.09 95.59 11.10Q95.48 11.11 95.27 11.11L95.27 11.11Q94.97 11.11 94.76 11.02Q94.55 10.92 94.36 10.88L94.36 10.88Q94.27 11.04 93.94 11.58Q93.61 12.12 93.18 12.84Q92.74 13.57 92.26 14.37Q91.78 15.16 91.36 15.86Q90.94 16.55 90.64 17.03Q90.35 17.51 90.28 17.60ZM112.95 13.05L112.95 13.05Q112.62 13.52 112.10 14.21Q111.59 14.91 111.04 15.60Q110.48 16.29 109.96 16.86Q109.43 17.44 109.08 17.67L109.08 17.67Q108.84 17.81 108.54 17.91Q108.23 18 107.92 18.02Q107.60 18.05 107.32 17.99Q107.04 17.93 106.83 17.79L106.83 17.79Q106.62 17.63 106.48 17.32L106.48 17.32Q106.36 17.06 106.25 16.64Q106.15 16.22 106.17 15.59L106.17 15.59Q105.61 16.52 104.93 17.03Q104.25 17.53 103.64 17.77L103.64 17.77Q102.94 18.02 102.23 18.07L102.23 18.07Q101.91 18.07 101.53 17.85Q101.16 17.63 100.90 17.14Q100.64 16.66 100.57 15.90Q100.50 15.14 100.76 14.09L100.76 14.09Q101.09 12.66 101.80 11.48Q102.52 10.31 103.36 9.48Q104.20 8.65 105.02 8.23Q105.84 7.80 106.38 7.85L106.38 7.85Q107.02 7.97 107.41 8.23L107.41 8.23Q107.74 8.46 107.85 8.92Q107.95 9.38 107.46 10.13L107.46 10.13Q107.79 10.05 108.01 10.03Q108.23 10.01 108.35 10.01L108.35 10.01Q108.49 10.01 108.54 10.03L108.54 10.03Q108.56 10.08 108.56 10.23Q108.56 10.38 108.49 10.78Q108.42 11.18 108.28 11.86Q108.14 12.54 107.91 13.62L107.91 13.62Q107.86 13.83 107.82 14.00Q107.79 14.18 107.75 14.36Q107.72 14.53 107.67 14.77Q107.63 15 107.55 15.35L107.55 15.35Q107.53 15.56 107.54 15.81Q107.55 16.05 107.63 16.27Q107.70 16.48 107.85 16.61Q108 16.73 108.28 16.73L108.28 16.73Q108.52 16.73 108.89 16.44Q109.27 16.15 109.69 15.69Q110.11 15.23 110.57 14.68Q111.02 14.13 111.42 13.62Q111.82 13.10 112.14 12.70Q112.45 12.30 112.59 12.12L112.59 12.12Q112.78 11.91 112.97 11.87Q113.16 11.84 113.25 11.98Q113.34 12.12 113.29 12.40Q113.23 12.68 112.95 13.05ZM106.08 14.09L106.08 14.09Q106.20 13.62 106.36 12.98Q106.52 12.35 106.64 11.77Q106.76 11.18 106.82 10.79Q106.88 10.41 106.78 10.43L106.78 10.43Q106.66 10.45 106.52 10.50L106.52 10.50Q106.41 10.55 106.22 10.57Q106.03 10.59 105.84 10.64L105.84 10.64Q106.03 10.27 106.07 10.02Q106.10 9.77 106.08 9.63L106.08 9.63Q106.05 9.47 105.98 9.38L105.98 9.38Q105.73 9.16 105.08 9.71Q104.44 10.27 103.59 11.74L103.59 11.74Q103.24 12.35 103.03 13.04Q102.82 13.73 102.74 14.34Q102.66 14.95 102.70 15.41Q102.75 15.87 102.89 16.01L102.89 16.01Q103.15 16.27 103.48 16.25Q103.80 16.24 104.14 16.07Q104.48 15.89 104.82 15.61Q105.16 15.33 105.43 15.02Q105.70 14.72 105.88 14.46Q106.05 14.20 106.08 14.09ZM122.30 16.64L122.30 16.64Q122.30 16.15 122.40 15.52Q122.51 14.88 122.67 14.21Q122.84 13.55 123 12.91Q123.16 12.28 123.28 11.79L123.28 11.79Q123.42 11.18 123.26 10.85Q123.09 10.52 122.70 10.52L122.70 10.52Q122.51 10.52 121.96 10.85Q121.41 11.18 120.76 11.99Q120.12 12.80 119.50 14.17Q118.88 15.54 118.52 17.65L118.52 17.65Q118.08 17.88 117.68 17.95L117.68 17.95Q117.47 18 117.30 18.02L117.30 18.02Q116.84 18.05 116.70 17.87Q116.55 17.70 116.74 17.02L116.74 17.02Q116.84 16.69 117.08 15.96Q117.33 15.23 117.56 14.38Q117.80 13.52 117.97 12.67Q118.15 11.81 118.15 11.18L118.15 11.18Q118.15 10.73 118.00 10.57Q117.84 10.41 117.56 10.41L117.56 10.41Q117.35 10.41 116.86 10.64Q116.37 10.88 115.76 11.55Q115.15 12.23 114.55 13.44Q113.95 14.65 113.53 16.57L113.53 16.57L113.53 16.52Q113.48 16.71 113.44 16.90L113.44 16.90Q113.39 17.06 113.37 17.25Q113.34 17.44 113.30 17.60L113.30 17.60L112.13 18.12Q112.01 18.16 111.83 18.19Q111.66 18.21 111.50 18.13Q111.35 18.05 111.28 17.79Q111.21 17.53 111.33 17.02L111.33 17.02L112.80 10.90Q112.88 10.59 112.92 10.31L112.92 10.31Q112.97 10.05 112.98 9.81Q112.99 9.56 112.95 9.40L112.95 9.40Q113.34 9.21 113.65 9.12Q113.95 9.02 114.14 8.98L114.14 8.98Q114.38 8.91 114.54 8.91L114.54 8.91Q115.29 8.91 115.03 10.20L115.03 10.20Q114.94 10.57 114.75 11.30L114.75 11.30Q115.20 10.73 115.70 10.23Q116.20 9.73 116.72 9.33Q117.23 8.93 117.76 8.70Q118.29 8.46 118.80 8.46L118.80 8.46Q119.20 8.46 119.47 8.70Q119.74 8.93 119.89 9.32Q120.05 9.70 120.07 10.23Q120.09 10.76 120.02 11.32L120.02 11.32Q120.40 10.83 120.86 10.32Q121.31 9.82 121.82 9.42Q122.32 9.02 122.86 8.77Q123.40 8.51 123.94 8.51L123.94 8.51Q124.57 8.51 124.91 8.88Q125.25 9.26 125.38 9.84Q125.51 10.43 125.45 11.11Q125.39 11.79 125.25 12.42L125.25 12.42L124.45 15.59Q124.20 16.76 124.95 16.76L124.95 16.76Q125.53 16.76 126.23 16.20Q126.94 15.63 127.61 14.86Q128.27 14.09 128.86 13.27Q129.45 12.45 129.84 11.95L129.84 11.95Q129.98 11.79 130.14 11.77Q130.29 11.74 130.39 11.82Q130.50 11.91 130.51 12.09Q130.52 12.28 130.38 12.56L130.38 12.56Q129.91 13.38 129.23 14.38Q128.55 15.38 127.75 16.24Q126.94 17.11 126.02 17.70Q125.11 18.28 124.13 18.28L124.13 18.28Q123.80 18.28 123.48 18.21Q123.16 18.14 122.89 17.95Q122.63 17.77 122.46 17.45Q122.30 17.13 122.30 16.64ZM133.76 3.91L133.76 3.91Q133.69 4.17 133.49 4.42Q133.29 4.66 133.04 4.82Q132.80 4.97 132.54 5.02Q132.28 5.06 132.12 4.92L132.12 4.92Q131.63 4.55 131.60 4.11Q131.58 3.68 131.81 3.29Q132.05 2.91 132.40 2.64Q132.75 2.37 133.01 2.32L133.01 2.32Q133.27 2.27 133.44 2.43Q133.62 2.58 133.71 2.82Q133.80 3.07 133.82 3.38Q133.83 3.68 133.76 3.91ZM130.52 8.91L130.52 8.91Q130.64 8.77 130.97 8.67Q131.30 8.58 131.65 8.52Q132 8.46 132.29 8.45Q132.59 8.44 132.63 8.46L132.63 8.46Q132.66 8.48 132.52 8.95Q132.38 9.42 132.16 10.05Q131.95 10.69 131.72 11.36Q131.48 12.02 131.37 12.45L131.37 12.45Q131.25 12.87 131.09 13.39Q130.92 13.92 130.79 14.43Q130.66 14.93 130.62 15.38Q130.57 15.82 130.69 16.05L130.69 16.05Q130.80 16.34 130.95 16.44Q131.09 16.55 131.25 16.55L131.25 16.55Q131.72 16.55 132.43 16.03Q133.15 15.52 133.89 14.80Q134.63 14.09 135.26 13.35Q135.89 12.61 136.20 12.16L136.20 12.16Q136.38 11.93 136.58 11.86Q136.78 11.79 136.91 11.88Q137.04 11.98 137.05 12.19Q137.06 12.40 136.90 12.68L136.90 12.68Q136.52 13.34 135.80 14.24Q135.07 15.14 134.25 15.97Q133.43 16.80 132.64 17.39Q131.86 17.98 131.37 18L131.37 18Q130.97 18.02 130.58 17.87Q130.20 17.72 129.88 17.45Q129.56 17.18 129.35 16.82Q129.14 16.45 129.12 16.05L129.12 16.05Q129.05 15.47 129.12 14.45Q129.19 13.43 129.38 12.36Q129.56 11.30 129.86 10.34Q130.15 9.38 130.52 8.91ZM139.17 16.92L139.17 16.92Q139.90 16.92 140.78 16.35Q141.66 15.77 142.49 15Q143.32 14.23 144.01 13.42Q144.70 12.61 145.05 12.12L145.05 12.12Q145.27 11.81 145.45 11.75Q145.64 11.70 145.73 11.81Q145.83 11.93 145.80 12.18Q145.78 12.42 145.59 12.73L145.59 12.73Q145.43 13.01 145.04 13.54Q144.66 14.06 144.13 14.68Q143.60 15.30 142.93 15.95Q142.27 16.59 141.54 17.12Q140.81 17.65 140.04 17.99Q139.27 18.33 138.52 18.33L138.52 18.33Q137.48 18.33 136.79 17.94Q136.10 17.55 135.69 16.95Q135.28 16.34 135.12 15.60Q134.95 14.86 134.95 14.13L134.95 14.13Q134.95 13.41 135.28 12.33Q135.61 11.25 136.25 10.25Q136.90 9.26 137.88 8.54Q138.87 7.83 140.20 7.83L140.20 7.83Q140.95 7.83 141.48 8.34Q142.01 8.86 141.98 9.75L141.98 9.75Q141.98 10.17 141.84 10.58Q141.70 10.99 141.47 11.31Q141.23 11.63 140.92 11.81Q140.60 12 140.23 12L140.23 12Q139.92 12 139.77 11.78Q139.62 11.55 139.58 11.26Q139.55 10.97 139.58 10.69Q139.62 10.41 139.66 10.31L139.66 10.31Q139.78 10.15 139.92 10.08Q140.06 10.01 140.25 9.91L140.25 9.91Q140.39 9.84 140.47 9.70Q140.55 9.56 140.55 9.40Q140.55 9.23 140.46 9.12Q140.37 9 140.16 9L140.16 9Q139.95 9 139.39 9.34Q138.84 9.68 138.27 10.35Q137.70 11.02 137.25 12.02Q136.80 13.03 136.78 14.37L136.78 14.37Q136.76 15.14 136.99 15.63Q137.23 16.13 137.58 16.41Q137.93 16.69 138.35 16.80Q138.77 16.92 139.17 16.92ZM147.21 16.92L147.21 16.92Q147.35 17.02 147.57 17.02Q147.80 17.02 148.02 16.92Q148.24 16.83 148.44 16.66Q148.64 16.50 148.73 16.24L148.73 16.24Q148.83 15.98 148.73 15.50Q148.64 15.02 148.44 14.47Q148.24 13.92 148.01 13.36Q147.77 12.80 147.61 12.33L147.61 12.33Q147.47 11.98 147.38 11.67L147.38 11.67Q147.28 11.41 147.20 11.17Q147.12 10.92 147.07 10.83L147.07 10.83Q146.95 11.02 146.66 11.44Q146.37 11.86 146.03 12.32Q145.69 12.77 145.38 13.16Q145.08 13.55 144.96 13.69L144.96 13.69Q144.77 13.90 144.60 13.93Q144.42 13.97 144.30 13.86Q144.19 13.76 144.18 13.56Q144.16 13.36 144.35 13.08L144.35 13.08Q144.49 12.89 144.77 12.48Q145.05 12.07 145.34 11.64Q145.62 11.20 145.85 10.86Q146.09 10.52 146.11 10.45L146.11 10.45Q146.16 10.27 145.98 9.96Q145.80 9.66 145.92 9.26L145.92 9.26Q146.02 8.93 146.34 8.50Q146.67 8.06 147.12 7.71Q147.56 7.36 148.03 7.18Q148.50 7.01 148.88 7.20L148.88 7.20Q149.18 7.38 149.37 7.61Q149.55 7.83 149.51 8.06L149.51 8.06Q149.46 8.18 149.37 8.37L149.37 8.37Q149.27 8.55 149.09 8.82Q148.90 9.09 148.55 9.52L148.55 9.52Q148.62 10.05 148.75 10.50Q148.88 10.95 148.99 11.27L148.99 11.27Q149.13 11.67 149.30 12L149.30 12Q149.51 12.42 149.74 12.87Q149.98 13.31 150.16 13.75Q150.35 14.18 150.47 14.55Q150.59 14.93 150.54 15.19L150.54 15.19Q150.47 15.59 150.13 16.15Q149.79 16.71 149.29 17.24Q148.78 17.77 148.14 18.14Q147.49 18.52 146.79 18.52L146.79 18.52Q146.30 18.52 145.84 18.21Q145.38 17.91 145.07 17.50Q144.75 17.09 144.60 16.69Q144.45 16.29 144.56 16.08L144.56 16.08Q144.70 15.80 144.82 15.63Q144.94 15.47 145.17 15.26L145.17 15.26Q145.27 15.19 145.41 15.09L145.41 15.09Q145.52 15.02 145.73 14.95Q145.95 14.88 146.23 14.79L146.23 14.79Q146.46 15.52 146.65 15.93Q146.84 16.34 146.95 16.57L146.95 16.57Q147.09 16.83 147.21 16.92Z" transform="translate(36, 6.329)"></path></svg>